<svg width="96.000000" height="37.890625" viewBox="0 0 96 37.8906" fill="none" xmlns="http://www.w3.org/2000/svg" xmlns:xlink="http://www.w3.org/1999/xlink">
	<desc>
			Created with Pixso.
	</desc>
	<defs/>
	<path id="Vector" d="M94.45 20.05C94.65 19.81 95.01 19.82 95.2 20.08L95.19 20.08L95.9 21.04C96.03 21.22 96.03 21.47 95.89 21.65C94.67 23.23 92.54 24.75 89.97 24.9C87.93 25.02 86.26 24.25 85.35 22.79C85.16 22.5 84.77 22.49 84.57 22.76C83.48 24.21 82.17 25.35 80.81 25.42C78.38 25.56 77.69 23.93 78.29 20.34C78.35 19.98 78.04 19.68 77.7 19.77C77.2 19.9 76.66 19.96 76.12 19.92C75.9 19.9 75.68 20.03 75.62 20.26C74.72 23.21 72.58 25.96 69.81 26.12C68.04 26.22 65.4 25.21 65.66 20.97C65.68 20.63 65.38 20.36 65.06 20.45C64.5 20.62 63.91 20.7 63.3 20.65C63.07 20.63 62.86 20.77 62.79 20.99C61.89 23.95 59.75 26.69 56.99 26.85C55.22 26.95 52.58 25.94 52.84 21.71C52.86 21.36 52.55 21.09 52.23 21.19C51.68 21.36 51.08 21.44 50.47 21.38C50.25 21.37 50.04 21.5 49.97 21.73C49.07 24.68 46.93 27.43 44.16 27.59C42.9 27.66 41.2 27.17 40.42 25.35C40.27 25 39.82 24.95 39.59 25.25C38.5 26.75 37.17 27.92 35.78 28C34.35 28.09 33.57 27.51 33.23 26.49C33.11 26.13 32.66 26.05 32.42 26.33C31.45 27.48 30.34 28.32 29.22 28.38C27.49 28.48 26.49 27.2 26.41 25.64C26.32 23.83 27.1 21.71 27.97 19.4C28.09 19.08 27.88 18.73 27.54 18.71C27.04 18.69 26.46 18.64 25.92 18.54C25.68 18.49 25.44 18.64 25.37 18.89C24.33 22.58 22.75 26.21 21.41 28.35C21.26 28.59 20.96 28.65 20.73 28.48L19.71 27.73C19.5 27.58 19.44 27.28 19.58 27.05C21.51 23.96 23.23 19.11 23.82 15.53C23.86 15.3 24.05 15.13 24.27 15.12L25.63 15.04C25.94 15.02 26.18 15.31 26.13 15.63L26.12 15.67C26.07 15.95 26.26 16.22 26.53 16.25C27.75 16.42 29.57 16.44 30.81 16.39C31.15 16.38 31.4 16.74 31.27 17.08C30.28 19.71 28.95 23.36 29.03 24.81C29.07 25.46 29.35 25.82 29.86 25.79C30.83 25.73 32.32 23.78 33.45 21.61C33.47 21.57 33.49 21.53 33.5 21.49C33.88 19.79 34.44 17.89 35.01 15.98L35.05 15.86C35.11 15.66 35.28 15.52 35.48 15.51L37.11 15.41C37.44 15.39 37.7 15.73 37.59 16.06C37.51 16.34 37.43 16.61 37.34 16.88C35.91 21.57 34.71 25.51 36.33 25.42C37.39 25.36 38.89 23.56 40.18 21.01C40.2 20.97 40.21 20.92 40.22 20.88C40.29 20.54 40.36 20.19 40.46 19.83C41.21 16.83 42.07 13.85 42.92 10.87C43.18 9.95 43.45 9.04 43.71 8.11C43.76 7.91 43.94 7.77 44.14 7.76L45.81 7.66C46.15 7.64 46.4 7.98 46.29 8.32C45.63 10.41 44.93 12.64 44.27 14.78C44.13 15.23 44.61 15.61 45 15.35C45.65 14.9 46.41 14.6 47.15 14.56C49.03 14.45 50.31 15.99 50.43 18.32C50.44 18.45 50.45 18.58 50.45 18.71C50.46 18.97 50.65 19.18 50.9 19.2C51.78 19.28 52.68 19.02 53.38 18.39C53.45 18.33 53.5 18.24 53.53 18.15C54.22 15.46 54.98 12.79 55.75 10.12C56.01 9.21 56.27 8.3 56.53 7.38C56.59 7.18 56.76 7.03 56.97 7.02L58.63 6.92C58.97 6.91 59.23 7.25 59.12 7.58C58.45 9.67 57.75 11.9 57.09 14.04C56.95 14.5 57.44 14.87 57.82 14.61C58.48 14.16 59.24 13.86 59.98 13.82C61.86 13.71 63.13 15.26 63.26 17.59C63.26 17.71 63.27 17.84 63.27 17.98C63.28 18.24 63.48 18.44 63.72 18.46C64.6 18.54 65.51 18.28 66.21 17.66C66.28 17.59 66.33 17.51 66.35 17.41C67.04 14.73 67.81 12.06 68.57 9.39C68.83 8.47 69.1 7.56 69.35 6.64C69.41 6.44 69.59 6.3 69.79 6.28L71.46 6.19C71.8 6.17 72.05 6.51 71.94 6.85C71.28 8.94 70.58 11.16 69.92 13.31C69.78 13.76 70.26 14.14 70.65 13.88C71.3 13.43 72.07 13.13 72.8 13.08C74.68 12.98 75.96 14.52 76.08 16.85C76.09 16.98 76.09 17.11 76.1 17.24C76.11 17.5 76.3 17.71 76.54 17.73C77.4 17.8 78.27 17.56 78.96 16.98C79.04 16.92 79.09 16.83 79.12 16.73C79.91 13.69 81.06 9.71 82.18 5.9C82.24 5.7 82.41 5.56 82.61 5.55L84.27 5.46C84.6 5.44 84.85 5.77 84.75 6.1C83.22 11.2 81.96 15.67 81.27 18.3C80.36 21.87 80.32 22.9 81.36 22.84C82.24 22.79 83.42 21.54 84.53 19.66C84.58 19.59 84.6 19.51 84.6 19.42C84.75 15.66 87.06 12.24 90.49 12.04C92.78 11.91 94.04 13.64 94.13 15.35C94.3 18.61 91.08 20.69 87.96 20.5C87.59 20.48 87.33 20.87 87.49 21.21C87.93 22.14 88.84 22.66 90.41 22.57C91.9 22.48 93.47 21.2 94.45 20.05ZM42.85 20.96C42.11 23.93 43.01 25.1 44.18 25.03C46.08 24.92 47.93 21.42 47.79 18.72C47.73 17.54 47.04 16.93 46.23 16.97C44.89 17.05 43.45 18.6 42.85 20.96ZM55.68 20.23C54.94 23.2 55.84 24.36 57 24.29L57 24.29C58.91 24.19 60.76 20.69 60.61 17.99C60.55 16.81 59.86 16.19 59.06 16.24C57.72 16.32 56.27 17.86 55.68 20.23ZM68.5 19.49C67.76 22.46 68.66 23.63 69.83 23.56L69.82 23.56C71.73 23.45 73.58 19.95 73.44 17.25C73.38 16.07 72.69 15.46 71.88 15.5C70.54 15.58 69.1 17.13 68.5 19.49ZM91.69 15.61C91.68 14.84 91.2 14.27 90.42 14.32L90.42 14.32C88.9 14.4 87.71 16.05 87.33 18.05C87.27 18.37 87.5 18.67 87.81 18.66C89.78 18.61 91.75 17.31 91.69 15.61ZM20.27 17.06C20.07 11.03 16.15 7.05 10.36 7.26C7.87 7.37 5.03 8.32 2.89 10C2.68 10.16 2.63 10.45 2.77 10.67L3.68 12.15C3.83 12.41 4.16 12.46 4.39 12.27C6.02 10.92 8.24 10.03 10.38 9.93C14.35 9.77 17.27 12.31 17.44 17.22C17.65 22.94 13.81 29.48 7.63 29.83C7.42 29.84 7.19 29.85 6.97 29.85C6.66 29.85 6.42 29.54 6.5 29.22C7.69 24.41 9.08 19.26 10.5 14.46C10.6 14.13 10.35 13.8 10.01 13.81L8.21 13.92C8 13.93 7.83 14.07 7.77 14.27C6.41 18.99 5.05 24.1 3.82 28.9C3.75 29.18 3.47 29.33 3.21 29.25C2.57 29.03 1.98 28.78 1.49 28.49C1.25 28.35 0.94 28.45 0.82 28.7L0.05 30.32C-0.07 30.56 0.02 30.86 0.24 30.99C2 31.98 4.67 32.55 7.35 32.4C16.18 31.9 20.5 23.74 20.27 17.06L20.27 17.06ZM37.62 9.65C36.55 9.71 35.59 10.92 35.66 12.19C35.7 13.03 36.24 13.59 37.08 13.54C38.15 13.48 39.13 12.21 39.07 11C39.02 10.16 38.4 9.61 37.62 9.65Z" fill="#0D0C22" fill-opacity="1.000000" fill-rule="evenodd"/>
</svg>
